<svg width="24" height="24" viewBox="0 0 24 24" fill="none" xmlns="http://www.w3.org/2000/svg">
<g id="Almond">
<g id="Icon">
<g id="Group">
<g id="Group_2">
<path id="Vector" d="M9.28701 2.94531C9.06662 2.73587 8.72077 2.73587 8.50038 2.94531C8.25991 3.17352 2.57143 8.76732 2.57143 15.7874C2.57143 19.2525 5.4286 22.0715 8.89369 22.0715C12.3588 22.0715 15.1779 19.2525 15.1779 15.7874C15.1779 8.76732 9.52748 3.17352 9.28701 2.94531Z" fill="#C1A386"/>
</g>
</g>
<g id="Group_3">
<g id="Group_4">
<path id="Vector_2" d="M16.1426 2.94531C15.9223 2.73587 15.5764 2.73587 15.356 2.94531C15.2973 3.00061 14.2295 4.13321 13.0145 5.84167C14.6355 8.28149 16.3206 11.8034 16.3206 15.7874C16.3206 17.8432 15.4777 19.7029 14.1224 21.048C13.8478 21.3205 13.9244 21.7996 14.2999 21.8924C14.7693 22.0084 15.2536 22.0715 15.7493 22.0715C19.2144 22.0715 22.0716 19.2525 22.0716 15.7874C22.0716 8.76732 16.3831 3.17352 16.1426 2.94531ZM16.3206 7.17993H17.4632V9.46509H16.3206V7.17993ZM18.6058 19.7864H17.4632V17.5012H18.6058V19.7864ZM18.6058 14.0354H17.4632V11.7502H18.6058V14.0354ZM19.7483 16.3586V14.0354H20.8909V16.3586H19.7483Z" fill="#C1A386"/>
</g>
</g>
</g>
</g>
</svg>
