<svg width="24" height="24" viewBox="0 0 24 24" fill="none" xmlns="http://www.w3.org/2000/svg">
<g id="Bucket">
<g id="Icon">
<path id="Vector" d="M5.66289 16.1759C7.51271 16.0136 9.20333 15.0897 10.3375 13.6386C9.86279 12.7774 10.4875 11.7122 11.4763 11.7122C12.1931 11.7122 12.7761 12.2953 12.7761 13.0121C12.7761 13.6903 12.2446 14.312 11.442 14.312C10.2433 16.2802 8.084 17.5013 5.74782 17.5013H4.89508C4.55841 17.5013 4.28571 17.774 4.28571 18.1106C4.28571 18.4469 4.55841 18.72 4.89508 18.72C5.79093 18.72 5.83751 18.7215 6.01594 18.7154L6.09821 19.3092H16.8544L17.8698 11.9967C17.9533 11.3955 17.4863 10.8591 16.8793 10.8591H6.0732C5.46625 10.8591 4.99924 11.3954 5.08271 11.9966L5.66289 16.1759Z" fill="#047C52"/>
<path id="Vector_2" d="M6.38952 21.4058C6.44252 21.7874 6.76876 22.0714 7.15399 22.0714H15.7991C16.1843 22.0714 16.5105 21.7874 16.5635 21.4058C16.628 20.9418 16.2676 20.5278 15.7991 20.5278H7.15399C6.68551 20.5278 6.32506 20.9418 6.38952 21.4058Z" fill="#047C52"/>
<path id="Vector_3" d="M19.7926 3.55006L17.9645 2.63601C17.6635 2.48549 17.2974 2.60748 17.147 2.90851C16.9964 3.2095 17.1185 3.57558 17.4195 3.72606L17.6327 3.83266L15.9199 6.79881C15.8392 6.93858 15.7063 7.04065 15.5501 7.08255C14.3603 7.40155 13.3295 8.10026 12.5643 9.20123C12.4325 9.39094 12.5748 9.64038 12.8058 9.64038H17.0844C17.2446 9.64038 17.3776 9.51381 17.3775 9.35363C17.3768 8.21464 17.0232 7.97576 17.2567 7.57042L19.0158 4.52422L19.2477 4.64015C19.5499 4.79128 19.9153 4.66746 20.0652 4.36765C20.2157 4.06658 20.0936 3.70054 19.7926 3.55006Z" fill="#047C52"/>
</g>
</g>
</svg>
