<svg width="24" height="24" viewBox="0 0 24 24" fill="none" xmlns="http://www.w3.org/2000/svg">
<g id="Cleaner">
<g id="Icon">
<g id="024   Cleaner">
<path id="Shape" d="M10.6277 8.24394C10.7643 8.1074 10.9857 8.1074 11.1222 8.24394C11.2587 8.38048 11.2587 8.60186 11.1222 8.7384L8.33649 11.5241C8.19685 11.653 7.98167 11.653 7.84203 11.5241C7.70736 11.3868 7.70736 11.167 7.84203 11.0296L10.6277 8.24394ZM6.51185 9.5184L9.27667 6.7501H13.8661L16.631 9.5184C16.9586 9.84498 17.1427 10.2885 17.1428 10.7511V11.6733C17.1428 11.839 17.0085 11.9733 16.8428 11.9733H12.2678C11.6916 11.975 11.2249 12.4417 11.2232 13.018V19.2858C11.2249 19.862 11.6916 20.3287 12.2678 20.3304H16.8428C17.0085 20.3304 17.1428 20.4648 17.1428 20.6304V20.6787C17.1428 21.4479 16.5192 22.0715 15.75 22.0715H7.39283C6.62358 22.0715 5.99997 21.4479 5.99997 20.6787V10.7511C6.00007 10.2885 6.18425 9.84498 6.51185 9.5184ZM7.35104 12.0151C7.54664 12.2112 7.81226 12.3215 8.08926 12.3215C8.36626 12.3215 8.63187 12.2112 8.82747 12.0151L11.6132 9.22938C11.8093 9.03379 11.9196 8.76817 11.9196 8.49117C11.9196 8.21417 11.8093 7.94855 11.6132 7.75296C11.1997 7.35942 10.5502 7.35942 10.1368 7.75296L7.35104 10.5387C7.1549 10.7343 7.04467 10.9999 7.04467 11.2769C7.04467 11.5539 7.1549 11.8195 7.35104 12.0151ZM12.2678 12.6697H16.4946C16.6603 12.6697 16.7946 12.8041 16.7946 12.9697V19.334C16.7946 19.4997 16.6603 19.634 16.4946 19.634H12.2678C12.0755 19.634 11.9196 19.4781 11.9196 19.2858V13.018C11.9196 12.8256 12.0755 12.6697 12.2678 12.6697ZM9.83033 4.66082H13.3125C13.5048 4.66082 13.6607 4.81672 13.6607 5.00903V5.55367C13.6607 5.82981 13.4368 6.05367 13.1607 6.05367H9.98212C9.70597 6.05367 9.48212 5.82981 9.48212 5.55367V5.00903C9.48212 4.81672 9.63802 4.66082 9.83033 4.66082ZM10.5268 2.57153H12.616C12.8084 2.57153 12.9643 2.72743 12.9643 2.91975V3.46439C12.9643 3.74053 12.7404 3.96439 12.4643 3.96439H10.6785C10.4024 3.96439 10.1785 3.74053 10.1785 3.46439V2.91975C10.1785 2.72743 10.3344 2.57153 10.5268 2.57153Z" fill="#096B91"/>
</g>
</g>
</g>
</svg>
