<svg width="24" height="24" viewBox="0 0 24 24" fill="none" xmlns="http://www.w3.org/2000/svg">
<g id="Cup">
<path id="Vector" d="M17.3296 18.9375H5.16085C4.8046 18.9375 4.49991 19.2094 4.48585 19.5656C4.4671 19.9406 4.7671 20.25 5.1421 20.25H17.3108C17.6671 20.25 17.9718 19.9781 17.9858 19.6219C17.9999 19.2469 17.6999 18.9375 17.3296 18.9375ZM18.7124 5.55469C18.7171 5.04844 18.5155 4.575 18.1405 4.22344C17.803 3.91406 17.3577 3.75 16.8983 3.75H4.06866C3.6046 3.75 3.14522 3.91875 2.80772 4.2375C2.42803 4.59844 2.22647 5.09062 2.24991 5.61094C2.36241 8.0625 2.73272 10.2187 3.36553 12.0141C3.88116 13.4953 4.57491 14.7375 5.42335 15.7125C6.91397 17.4281 8.64835 18 9.07491 18H11.8921C12.1499 18 13.064 17.6625 13.964 17.0859C15.014 16.4109 15.9515 15.3656 16.6874 14.0578C16.7812 14.0625 16.8749 14.0672 16.964 14.0672C18.239 14.0672 19.439 13.6125 20.3437 12.7828C21.253 11.9484 21.7546 10.8422 21.7546 9.66094C21.7499 7.8375 20.5405 6.21563 18.7124 5.55469ZM17.3202 12.7313C17.9858 11.1141 18.4265 9.16875 18.6233 6.94687C18.6233 6.94687 18.6233 6.94219 18.628 6.94687C19.1108 7.18125 19.5233 7.51875 19.8374 7.92656C20.2312 8.4375 20.4374 9.0375 20.4374 9.66094C20.4374 11.2547 19.0687 12.5719 17.3202 12.7313Z" fill="#E1289B"/>
</g>
</svg>
