<svg width="24" height="24" viewBox="0 0 24 24" fill="none" xmlns="http://www.w3.org/2000/svg">
<g id="Cupcake">
<g id="Icon">
<g id="Group">
<g id="Group_2">
<path id="Vector" d="M20.3299 9.7124C20.3121 9.7124 20.2946 9.71316 20.277 9.71379L20.2662 9.71415C19.9863 9.72447 19.7364 9.54187 19.6597 9.27286C18.6787 5.83181 15.4917 3.42847 11.9093 3.42847C8.32689 3.42847 5.1398 5.83181 4.15889 9.27286C4.08219 9.54191 3.8315 9.72459 3.55237 9.71415L3.54174 9.71379C3.5241 9.71316 3.50649 9.7124 3.48869 9.7124C2.51029 9.7124 1.71429 10.5084 1.71429 11.4868C1.71429 12.3999 2.39799 13.1587 3.30462 13.2517C3.32545 13.2538 3.34592 13.257 3.36603 13.2612H3.48865H8.90896C8.90928 13.2612 8.9096 13.2612 8.90992 13.2612H14.9086C14.909 13.2612 14.9093 13.2612 14.9097 13.2612H20.3299H20.4525C20.4726 13.257 20.4931 13.2538 20.5139 13.2517C21.4206 13.1587 22.1042 12.3999 22.1042 11.4868C22.1043 10.5084 21.3083 9.7124 20.3299 9.7124Z" fill="#734230"/>
</g>
</g>
<g id="Group_3">
<g id="Group_4">
<path id="Vector_2" d="M15.4658 14.4783L14.8801 20.5714H16.9429C17.5039 20.5714 17.9952 20.195 18.1411 19.6533L19.5355 14.4783H15.4658Z" fill="#734230"/>
</g>
</g>
<g id="Group_5">
<g id="Group_6">
<path id="Vector_3" d="M8.35268 14.4783H4.28297L5.67737 19.6533C5.82333 20.195 6.3146 20.5714 6.8756 20.5714H8.93837L8.35268 14.4783Z" fill="#734230"/>
</g>
</g>
<g id="Group_7">
<g id="Group_8">
<path id="Vector_4" d="M9.57524 14.4783L10.1609 20.5713H13.6576L14.2433 14.4783H9.57524Z" fill="#734230"/>
</g>
</g>
<g id="Group_9">
<g id="Group_10">
<path id="Vector_5" d="M20.33 9.71225C20.3125 9.71225 20.2947 9.71305 20.2773 9.71388L20.2663 9.71428C19.9868 9.72443 19.7365 9.54188 19.6598 9.27291C18.6789 5.83166 15.492 3.42847 11.9096 3.42847C8.32715 3.42847 5.14018 5.83166 4.15927 9.27291C4.08261 9.54188 3.83188 9.72443 3.55279 9.71428L3.54184 9.71388C3.52439 9.71309 3.50695 9.71225 3.48911 9.71225C2.51063 9.71225 1.7147 10.5082 1.7147 11.4867C1.7147 12.3998 2.39825 13.1584 3.30492 13.2517C3.32563 13.2537 3.3463 13.257 3.36617 13.261H14.909C14.9094 13.261 14.9098 13.261 14.9098 13.261H20.4529C20.4728 13.257 20.4935 13.2537 20.5141 13.2517C21.4208 13.1584 22.1044 12.3998 22.1044 11.4867C22.1044 10.5082 21.3084 9.71225 20.33 9.71225Z" fill="#734230"/>
</g>
</g>
</g>
</g>
</svg>
