<svg width="24" height="24" viewBox="0 0 24 24" fill="none" xmlns="http://www.w3.org/2000/svg">
<g id="Handbag">
<g id="Icon">
<path id="Vector" d="M6.52411 12.5412C7.69478 13.4939 9.15773 14.0365 10.6637 14.0811V12.6789H13.9229V14.0811C15.4289 14.0365 16.8919 13.4939 18.0625 12.5412C19.164 11.6448 19.9626 10.4212 20.3443 9.05896V7.80796C20.3443 7.25568 19.8965 6.80796 19.3443 6.80796H17.4622C17.2696 4.12452 15.025 2 12.2933 2C9.56159 2 7.31699 4.12452 7.12442 6.80796H5.24235C4.69007 6.80796 4.24235 7.25568 4.24235 7.80796V9.05896C4.62406 10.4212 5.42263 11.6448 6.52411 12.5412ZM12.2933 3.14353C14.3941 3.14353 16.1251 4.75583 16.3148 6.80796H8.2718C8.46144 4.75583 10.1925 3.14353 12.2933 3.14353Z" fill="#261BAC"/>
<path id="Vector_2" d="M21.4625 15.4762L20.6524 11.2405C20.1689 12.0713 19.5373 12.8152 18.7842 13.4281C17.4103 14.5463 15.691 15.1802 13.9228 15.2251V16.6433H10.6636V15.2251C8.89543 15.1802 7.17622 14.5463 5.80223 13.4281C5.04922 12.8152 4.41761 12.0713 3.93405 11.2405L3.12401 15.4762C2.79045 16.945 3.13709 18.4625 4.07592 19.6411C5.01697 20.8224 6.42294 21.4999 7.93331 21.4999H16.6532C18.1636 21.4999 19.5695 20.8224 20.5106 19.6411C21.4494 18.4625 21.796 16.945 21.4625 15.4762Z" fill="#261BAC"/>
<path id="Vector_3" d="M11.8072 13.8225H12.7793V15.4999H11.8072V13.8225Z" fill="#261BAC"/>
</g>
</g>
</svg>
