<svg width="24" height="24" viewBox="0 0 24 24" fill="none" xmlns="http://www.w3.org/2000/svg">
<g id="Ingredients ">
<g id="Icon">
<path id="Vector" d="M4.82428 5.04331H12.4697C12.6142 5.04331 12.7324 4.92513 12.7324 4.78068V3.25817C12.7324 2.879 12.425 2.57153 12.0459 2.57153H5.24822C4.86905 2.57153 4.56165 2.879 4.56165 3.25817V4.78068C4.56165 4.92519 4.67983 5.04331 4.82428 5.04331Z" fill="#FF9F0A"/>
<path id="Vector_2" d="M3.85066 7.30917H13.4435C13.5879 7.30917 13.6533 7.20346 13.5887 7.07425L13.1714 6.23956C13.1067 6.11035 12.9357 6.00464 12.7913 6.00464H4.50296C4.35851 6.00464 4.18748 6.11035 4.12287 6.23956L3.70549 7.07425C3.64089 7.20346 3.70621 7.30917 3.85066 7.30917Z" fill="#FF9F0A"/>
<path id="Vector_3" d="M13.831 17.986C13.831 17.2092 14.0547 16.1681 14.4493 15.1638C13.5635 15.1176 12.232 15.389 11.1643 15.8392C9.92998 16.3597 9.19252 17.0229 9.14105 17.6586C9.08944 18.2944 9.71042 19.0677 10.8448 19.7802C11.8611 20.4185 13.1881 20.9144 14.0721 20.986C14.4331 21.0154 14.7895 20.9782 15.1287 20.8784C14.3331 20.1675 13.831 19.1345 13.831 17.986Z" fill="#FF9F0A"/>
<path id="Vector_4" d="M19.6872 14.6717C19.0687 13.4835 18.3481 12.802 17.7103 12.802C17.0724 12.802 16.3518 13.4835 15.7333 14.6717C15.1792 15.7363 14.7922 17.0991 14.7922 17.986C14.7922 19.595 16.1012 20.9041 17.7103 20.9041C19.3193 20.9041 20.6284 19.595 20.6284 17.986C20.6284 17.0991 20.2414 15.7363 19.6872 14.6717Z" fill="#FF9F0A"/>
<path id="Vector_5" d="M8.18264 17.5812C8.26537 16.561 9.19146 15.6279 10.7906 14.9536C11.7661 14.5422 12.9141 14.2713 13.8652 14.2107V8.53313C13.8652 8.38869 13.747 8.27051 13.6026 8.27051H3.6912C3.54675 8.27051 3.42857 8.38869 3.42857 8.53313V21.385C3.42857 21.7641 3.73604 22.0716 4.11521 22.0716H13.1786C13.3525 22.0716 13.5109 22.0066 13.6318 21.9C11.4801 21.5573 8.01154 19.6918 8.18264 17.5812Z" fill="#FF9F0A"/>
</g>
</g>
</svg>
