<svg width="24" height="24" viewBox="0 0 24 24" fill="none" xmlns="http://www.w3.org/2000/svg">
<g id="Shirt">
<path id="Vector" d="M21.6468 8.51719C21.7077 8.44219 21.703 8.33906 21.6374 8.26875C21.0984 7.70156 18.764 5.28281 17.4609 4.34531C16.4999 3.65625 15.5624 3 14.5312 3C13.4999 3 13.4999 3.375 11.9999 3.375C10.4999 3.375 10.4999 3 9.46867 3C8.43742 3 7.49992 3.65625 6.53898 4.34531C5.23586 5.28281 2.90148 7.70156 2.36242 8.26875C2.2968 8.33906 2.29211 8.44219 2.35305 8.51719L5.24523 11.5172C5.35773 11.6531 5.57805 11.5734 5.57805 11.4V9.29531C5.57805 9.08438 5.72805 8.89688 5.9343 8.86406C6.1968 8.82188 6.4218 9.02812 6.4218 9.28125V20.625C6.4218 20.8312 6.59055 21 6.7968 21H17.203C17.4093 21 17.578 20.8312 17.578 20.625V9.29531C17.578 9.08438 17.728 8.89688 17.9343 8.86406C18.1968 8.82188 18.4218 9.02812 18.4218 9.28125V11.4C18.4218 11.5781 18.6421 11.6531 18.7546 11.5172L21.6468 8.51719ZM11.9999 6.70312C10.5937 6.70312 9.46867 6.10781 9.46867 5.01562C9.46867 3.60938 10.5937 4.51406 11.9999 4.51406C13.3968 4.51406 14.5312 3.60938 14.5312 5.01562C14.5312 6.10781 13.3968 6.70312 11.9999 6.70312Z" fill="#BF5AF2"/>
</g>
</svg>
