<svg width="24" height="24" viewBox="0 0 24 24" fill="none" xmlns="http://www.w3.org/2000/svg">
<g id="Teddy-bear">
<g id="Icon">
<path id="Vector" d="M6.6084 16.9297C5.34829 16.9297 4.32324 17.9547 4.32324 19.2148C4.32324 20.475 5.34829 21.5 6.6084 21.5C7.86851 21.5 8.89355 20.475 8.89355 19.2148C8.89355 17.9547 7.86851 16.9297 6.6084 16.9297Z" fill="#FE8383"/>
<path id="Vector_2" d="M16.5107 16.9297C15.2506 16.9297 14.2256 17.9547 14.2256 19.2148C14.2256 20.475 15.2506 21.5 16.5107 21.5C17.7709 21.5 18.7959 20.475 18.7959 19.2148C18.7959 17.9547 17.7709 16.9297 16.5107 16.9297Z" fill="#FE8383"/>
<path id="Vector_3" d="M6.39268 6.54443C6.28303 6.97423 6.22754 7.41668 6.22754 7.86523C6.22754 10.6123 8.31587 12.8807 10.9883 13.1666V10.7319L10.5424 10.5091C10.2602 10.3679 10.1458 10.0248 10.287 9.7426C10.428 9.46038 10.7712 9.34597 11.0533 9.48716L11.5596 9.74022L12.0658 9.48701C12.3481 9.34597 12.6911 9.46038 12.8322 9.74245C12.9734 10.0247 12.859 10.3679 12.5767 10.5089L12.1309 10.7319V13.1666C14.8033 12.8807 16.8916 10.6123 16.8916 7.86523C16.8916 7.41668 16.8361 6.97423 16.7265 6.54443C17.4107 6.09245 17.8438 5.31526 17.8438 4.47559C17.8438 3.11059 16.7332 2 15.3682 2C14.6237 2 13.9346 2.32968 13.4701 2.8858C12.8625 2.65163 12.2221 2.5332 11.5596 2.5332C10.8971 2.5332 10.2566 2.65163 9.64902 2.8858C9.18456 2.32968 8.49544 2 7.75098 2C6.38598 2 5.27539 3.11059 5.27539 4.47559C5.27539 5.31526 5.70847 6.09245 6.39268 6.54443ZM13.6543 7.25586C13.9698 7.25586 14.2256 7.5116 14.2256 7.82715C14.2256 8.1427 13.9698 8.39844 13.6543 8.39844C13.3387 8.39844 13.083 8.1427 13.083 7.82715C13.083 7.5116 13.3387 7.25586 13.6543 7.25586ZM9.46484 7.25586C9.78039 7.25586 10.0361 7.5116 10.0361 7.82715C10.0361 8.1427 9.78039 8.39844 9.46484 8.39844C9.1493 8.39844 8.89355 8.1427 8.89355 7.82715C8.89355 7.5116 9.1493 7.25586 9.46484 7.25586Z" fill="#FE8383"/>
<path id="Vector_4" d="M19.0244 10.4551H17.4929C16.492 12.7396 14.2092 14.3398 11.5596 14.3398C8.90992 14.3398 6.62714 12.7396 5.6262 10.4551H4.09473C2.93787 10.4551 2 11.3929 2 12.5498C2 13.7067 2.93787 14.6445 4.09473 14.6445H5.65625V15.9217C6.00319 15.8213 6.37259 15.7742 6.75494 15.7902C8.52251 15.8645 9.95565 17.2948 10.0327 19.0621C10.0738 19.9987 9.73621 20.858 9.1609 21.5H13.9582C13.3829 20.858 13.0454 19.9987 13.0864 19.0621C13.1636 17.2948 14.5968 15.8645 16.3642 15.7902C16.7465 15.7742 17.116 15.8213 17.4629 15.9217V14.6445H19.0244C20.1813 14.6445 21.1191 13.7067 21.1191 12.5498C21.1191 11.3929 20.1813 10.4551 19.0244 10.4551Z" fill="#FE8383"/>
</g>
</g>
</svg>
