<svg width="24" height="24" viewBox="0 0 24 24" fill="none" xmlns="http://www.w3.org/2000/svg">
<g id="Tomato">
<g id="Icon">
<g id="Group">
<g id="Group_2">
<path id="Vector" d="M12.0524 9.8855C10.7092 9.8855 9.61641 10.9783 9.61641 12.3215C9.61641 13.6647 10.7092 14.7574 12.0524 14.7574C13.3956 14.7574 14.4883 13.6647 14.4883 12.3215C14.4883 10.9783 13.3955 9.8855 12.0524 9.8855Z" fill="#524C8C"/>
</g>
</g>
<g id="Group_3">
<g id="Group_4">
<path id="Vector_2" d="M19.2447 2.57153H4.86055C4.5431 2.57153 4.28571 2.82892 4.28571 3.14637C4.28571 3.46184 4.5399 3.71766 4.85461 3.7209H19.2506C19.5653 3.71766 19.8195 3.46184 19.8195 3.14637C19.8195 2.82892 19.5621 2.57153 19.2447 2.57153Z" fill="#524C8C"/>
</g>
</g>
<g id="Group_5">
<g id="Group_6">
<path id="Vector_3" d="M5.15894 4.87061V11.7467H8.51312C8.78906 10.0419 10.271 8.73586 12.0524 8.73586C13.8339 8.73586 15.3158 10.0418 15.5918 11.7467H18.946V4.87061H5.15894Z" fill="#524C8C"/>
</g>
</g>
<g id="Group_7">
<g id="Group_8">
<path id="Vector_4" d="M15.5917 12.8962C15.3158 14.601 13.8339 15.907 12.0524 15.907C10.2709 15.907 8.78902 14.6011 8.51308 12.8962H5.15894V19.773H18.9459V12.8962H15.5917Z" fill="#524C8C"/>
</g>
</g>
<g id="Group_9">
<g id="Group_10">
<path id="Vector_5" d="M19.2587 20.9226H4.84649C4.5356 20.9301 4.28571 21.184 4.28571 21.4967C4.28571 21.8142 4.5431 22.0715 4.86055 22.0715H19.2447C19.5621 22.0715 19.8195 21.8142 19.8195 21.4967C19.8195 21.184 19.5697 20.9302 19.2587 20.9226Z" fill="#524C8C"/>
</g>
</g>
</g>
</g>
</svg>
