<svg width="24" height="24" viewBox="0 0 24 24" fill="none" xmlns="http://www.w3.org/2000/svg">
<g id="Water">
<path id="Vector" d="M16.5 6.86261C14.8875 4.58448 13.3359 3.18292 12.2438 2.33448C12.0984 2.22198 11.9016 2.22198 11.7563 2.32979C10.6781 3.13136 9.12656 4.59854 7.51406 6.85323C5.76563 9.29073 4.56094 11.9345 4.50469 14.8642C4.50469 14.9204 4.5 14.9814 4.5 15.0376C4.5 15.9001 4.68281 16.7204 5.01094 17.4798C5.20313 17.9157 5.44219 18.3282 5.72344 18.7126C7.05937 20.5407 9.37031 21.7501 11.9953 21.7501C16.1391 21.7501 19.5 18.7454 19.5 15.0376C19.5 12.0517 18.2344 9.30948 16.5 6.86261ZM12.4688 19.2517H12.4453C11.9812 19.2517 11.8828 18.5907 12.3234 18.4501C14.4375 17.7845 15.5859 16.6454 16.3734 14.6626C16.5375 14.2454 17.1562 14.3579 17.1609 14.8079V14.8735C17.1562 17.2923 15.0562 19.2517 12.4688 19.2517Z" fill="#0A84FF"/>
</g>
</svg>
