<svg width="28" height="28" viewBox="0 0 28 28" fill="none" xmlns="http://www.w3.org/2000/svg">
<g id="Add">
<path id="Vector" d="M18.9492 13.125H14.875V9.05078C14.875 8.56953 14.4812 8.17578 14 8.17578C13.5188 8.17578 13.125 8.56953 13.125 9.05078V13.125H9.05078C8.56953 13.125 8.17578 13.4531 8.17578 14C8.17578 14.5469 8.58594 14.875 9.05078 14.875H13.125V18.9492C13.125 19.4688 13.5078 19.8242 14 19.8242C14.4922 19.8242 14.875 19.4305 14.875 18.9492V14.875H18.9492C19.4305 14.875 19.8242 14.4812 19.8242 14C19.8242 13.5188 19.4305 13.125 18.9492 13.125Z" fill="#5856D6"/>
<path id="Vector_2" d="M14 4.15625C16.6305 4.15625 19.1023 5.17891 20.9617 7.03828C22.8211 8.89766 23.8438 11.3695 23.8438 14C23.8438 16.6305 22.8211 19.1023 20.9617 20.9617C19.1023 22.8211 16.6305 23.8438 14 23.8438C11.3695 23.8438 8.89766 22.8211 7.03828 20.9617C5.17891 19.1023 4.15625 16.6305 4.15625 14C4.15625 11.3695 5.17891 8.89766 7.03828 7.03828C8.89766 5.17891 11.3695 4.15625 14 4.15625ZM14 2.625C7.71641 2.625 2.625 7.71641 2.625 14C2.625 20.2836 7.71641 25.375 14 25.375C20.2836 25.375 25.375 20.2836 25.375 14C25.375 7.71641 20.2836 2.625 14 2.625Z" fill="#5856D6"/>
</g>
</svg>
