<svg width="24" height="24" viewBox="0 0 24 24" fill="none" xmlns="http://www.w3.org/2000/svg">
<g id="Apple">
<g id="Icon">
<g id="Group">
<g id="Group_2">
<path id="Vector" d="M16.9049 7.97958H16.9048C15.7503 7.79322 14.5967 8.08615 13.657 8.8042C12.6816 9.54957 11.3188 9.54957 10.3433 8.8042C9.58836 8.22729 8.69538 7.9248 7.77468 7.9248C7.54941 7.9248 7.32248 7.9429 7.0955 7.97954C4.73044 8.36107 3.10942 10.6577 3.482 13.0992C4.15975 17.5404 5.44426 20.5628 7.19675 21.8398C8.01625 22.4369 8.92187 22.6452 9.96562 22.4769C10.6053 22.3737 11.1105 22.1132 11.5104 21.6803C11.6366 21.5437 11.8142 21.4659 12.0001 21.4659C12.1861 21.4659 12.3637 21.5437 12.4899 21.6803C12.8897 22.1132 13.395 22.3737 14.0347 22.4769C15.0784 22.6454 15.9841 22.437 16.8035 21.8398C18.5561 20.5628 19.8405 17.5404 20.5183 13.0992C20.8909 10.6578 19.2699 8.36111 16.9049 7.97958Z" fill="#00EA96"/>
</g>
</g>
<g id="Group_3">
<g id="Group_4">
<path id="Vector_2" d="M16.9223 3.72294C16.7896 3.37956 16.4036 3.20865 16.06 3.3415C15.9549 3.38212 14.3032 4.03885 12.9988 5.572C12.9499 5.33068 12.8817 5.08772 12.7892 4.84692C12.013 2.82493 9.88083 1.81802 9.79043 1.77609C9.62685 1.7003 9.43952 1.69408 9.27122 1.75861C9.10292 1.82322 8.96797 1.95322 8.89709 2.11904C8.85794 2.21069 7.94715 4.38573 8.72331 6.40773C8.79341 6.59026 8.8753 6.76372 8.96496 6.92974C9.74705 7.10288 10.4909 7.44774 11.1533 7.95381C11.652 8.33502 12.3489 8.33502 12.8477 7.95381C12.965 7.8642 13.0849 7.77966 13.2071 7.70021C13.5539 6.93841 14.0959 6.24919 14.8297 5.64178C15.7042 4.91788 16.5341 4.5879 16.5409 4.58526C16.8843 4.45246 17.0551 4.06642 16.9223 3.72294Z" fill="#00EA96"/>
</g>
</g>
</g>
</g>
</svg>
