<svg width="45" height="8" viewBox="0 0 45 8" fill="none" xmlns="http://www.w3.org/2000/svg">
<g id="Container" clip-path="url(#clip0_1_7485)">
<path id="Dot_3" opacity="0.3" fill-rule="evenodd" clip-rule="evenodd" d="M40.5 8C42.7091 8 44.5 6.20914 44.5 4C44.5 1.79086 42.7091 0 40.5 0C38.2909 0 36.5 1.79086 36.5 4C36.5 6.20914 38.2909 8 40.5 8Z" fill="white"/>
<path id="Dot_2" opacity="0.3" fill-rule="evenodd" clip-rule="evenodd" d="M22.5 8C24.7091 8 26.5 6.20914 26.5 4C26.5 1.79086 24.7091 0 22.5 0C20.2909 0 18.5 1.79086 18.5 4C18.5 6.20914 20.2909 8 22.5 8Z" fill="white"/>
<path id="Dot_1" fill-rule="evenodd" clip-rule="evenodd" d="M4.5 8C6.70914 8 8.5 6.20914 8.5 4C8.5 1.79086 6.70914 0 4.5 0C2.29086 0 0.5 1.79086 0.5 4C0.5 6.20914 2.29086 8 4.5 8Z" fill="white"/>
</g>
<defs>
<clipPath id="clip0_1_7485">
<rect width="44" height="8" fill="white" transform="translate(0.5)"/>
</clipPath>
</defs>
</svg>
