<svg width="28" height="28" viewBox="0 0 28 28" fill="none" xmlns="http://www.w3.org/2000/svg">
<g id="Delete">
<path id="Icon" fill-rule="evenodd" clip-rule="evenodd" d="M11.3261 6.24276V5.68423C11.3261 5.37756 11.636 5.12756 12.0165 5.12756H15.8911C16.2725 5.12756 16.5824 5.37756 16.5824 5.68423V6.24276H11.3261ZM19.7183 7.6356C19.6375 9.74054 19.1373 22.6378 19.0742 23.2187C19.0371 23.5662 18.909 23.7372 18.8403 23.806H9.06726C8.99766 23.7372 8.87052 23.5662 8.8334 23.2187C8.77122 22.6378 8.21162 9.74983 8.12067 7.6356H19.7183ZM17.9689 6.2426V5.68407C17.9689 4.6079 17.0993 3.7334 16.0293 3.7334H11.8782C10.8082 3.7334 9.93863 4.6079 9.93863 5.68407V6.2426H5.78662V7.63567H6.73321L7.45336 23.7252C7.46543 23.7847 7.77446 25.2001 8.97069 25.2001H18.935C20.1321 25.2001 20.4411 23.7847 20.4597 23.6797L21.14 7.63567H22.12V6.2426H17.9689ZM17.6865 8.75208H16.2991L15.8666 22.6911H17.254L17.6865 8.75208ZM13.2594 22.6913H14.6468V8.75228H13.2594V22.6913ZM12.0398 22.6911L11.6074 8.75208H10.22L10.6515 22.6911H12.0398Z" fill="white"/>
</g>
</svg>
