<svg width="28" height="28" viewBox="0 0 28 28" fill="none" xmlns="http://www.w3.org/2000/svg">
<g id="List">
<path id="Vector" d="M2.625 4.52266V23.4828C2.625 24.5273 3.47266 25.3805 4.52266 25.3805H23.4828C24.5273 25.3805 25.3805 24.5328 25.3805 23.4828V4.52266C25.3805 3.47812 24.5328 2.625 23.4828 2.625H4.52266C3.47266 2.625 2.625 3.47266 2.625 4.52266ZM7.50859 20.7703C6.79219 20.8633 6.19063 20.2617 6.28359 19.5453C6.34375 19.0586 6.7375 18.6648 7.22422 18.6047C7.94063 18.5117 8.54219 19.1133 8.44922 19.8297C8.38906 20.3164 7.99531 20.7102 7.50859 20.7703ZM7.50859 15.0828C6.79219 15.1758 6.19063 14.5742 6.28359 13.8578C6.34375 13.3711 6.7375 12.9773 7.22422 12.9172C7.94063 12.8242 8.54219 13.4258 8.44922 14.1422C8.38906 14.6289 7.99531 15.0227 7.50859 15.0828ZM7.50859 9.39531C6.79219 9.48828 6.19063 8.88672 6.28359 8.17031C6.34375 7.68359 6.7375 7.28984 7.22422 7.22969C7.94063 7.13672 8.54219 7.73828 8.44922 8.45469C8.38906 8.94141 7.99531 9.33516 7.50859 9.39531ZM21.0383 20.4531H11.1945C10.7734 20.4531 10.4289 20.1086 10.4289 19.6875C10.4289 19.2664 10.7734 18.9219 11.1945 18.9219H21.0383C21.4594 18.9219 21.8039 19.2664 21.8039 19.6875C21.8039 20.1086 21.4594 20.4531 21.0383 20.4531ZM21.0383 14.7656H11.1945C10.7734 14.7656 10.4289 14.4211 10.4289 14C10.4289 13.5789 10.7734 13.2344 11.1945 13.2344H21.0383C21.4594 13.2344 21.8039 13.5789 21.8039 14C21.8039 14.4211 21.4594 14.7656 21.0383 14.7656ZM21.0383 9.07812H11.1945C10.7734 9.07812 10.4289 8.73359 10.4289 8.3125C10.4289 7.89141 10.7734 7.54688 11.1945 7.54688H21.0383C21.4594 7.54688 21.8039 7.89141 21.8039 8.3125C21.8039 8.73359 21.4594 9.07812 21.0383 9.07812Z" fill="#8E8E93"/>
</g>
</svg>
