<svg width="28" height="28" viewBox="0 0 28 28" fill="none" xmlns="http://www.w3.org/2000/svg">
<g id="More">
<path id="Vector" d="M13.9891 11.9219C12.8406 11.9219 11.9109 12.8516 11.9109 14C11.9109 15.1484 12.8406 16.0781 13.9891 16.0781C15.1375 16.0781 16.0672 15.1484 16.0672 14C16.0672 12.8516 15.1375 11.9219 13.9891 11.9219ZM5.57812 11.9219C4.42969 11.9219 3.5 12.8516 3.5 14C3.5 15.1484 4.42969 16.0781 5.57812 16.0781C6.72656 16.0781 7.65625 15.1484 7.65625 14C7.65625 12.8516 6.72656 11.9219 5.57812 11.9219ZM22.4219 11.9219C21.2734 11.9219 20.3438 12.8516 20.3438 14C20.3438 15.1484 21.2734 16.0781 22.4219 16.0781C23.5703 16.0781 24.5 15.1484 24.5 14C24.5 12.8516 23.5703 11.9219 22.4219 11.9219Z" fill="white"/>
</g>
</svg>
