<svg width="28" height="28" viewBox="0 0 28 28" fill="none" xmlns="http://www.w3.org/2000/svg">
<g id="Restore">
<path id="Vector" d="M23.6797 15.7939C23.2586 15.7939 22.8977 16.1166 22.8648 16.5377C22.4875 21.0822 18.6648 24.626 14.0164 24.626C9.12187 24.626 5.13516 20.6666 5.13516 15.7994C5.13516 11.0088 8.99609 7.09316 13.7867 6.97285C13.9125 6.96738 14.0109 7.06582 14.0109 7.1916V9.94238C14.0109 10.6314 14.7711 11.0471 15.3562 10.6807L20.6172 7.00019C21.1641 6.65566 21.1641 5.86269 20.6172 5.51816L15.3617 1.88691C14.7766 1.52051 14.0164 1.93613 14.0164 2.62519V5.12441C14.0164 5.24472 13.9234 5.34316 13.8031 5.34316C8.09375 5.45801 3.5 10.0955 3.5 15.7994C3.5 21.5744 8.20859 26.2502 14.0164 26.2502C19.5289 26.2502 24.0461 22.0557 24.4945 16.6744C24.5383 16.1986 24.1555 15.7939 23.6797 15.7939Z" fill="white"/>
</g>
</svg>
