<svg width="28" height="28" viewBox="0 0 28 28" fill="none" xmlns="http://www.w3.org/2000/svg">
<g id="Settings_icon">
<path id="Vector" d="M24.9867 13.2451L23.5594 13.0154C23.368 12.9826 23.2258 12.8349 23.1984 12.6435C23.1711 12.4685 23.1437 12.2935 23.1055 12.124C23.0672 11.938 23.1547 11.7466 23.3188 11.6537L24.582 10.9537C24.7789 10.8552 24.8719 10.6201 24.7953 10.4123L24.5766 9.81069C24.5 9.60288 24.2812 9.48257 24.0625 9.53725L22.6461 9.81069C22.4602 9.84897 22.2687 9.756 22.1758 9.58647C22.0938 9.43335 22.0063 9.28022 21.9133 9.1271C21.8148 8.96304 21.8258 8.75522 21.9516 8.60757L22.8977 7.51929C23.0508 7.35522 23.0562 7.10913 22.9141 6.9396L22.5039 6.44741C22.3617 6.27788 22.1156 6.2396 21.9297 6.36538L20.6883 7.10913C20.5242 7.20757 20.3164 7.18569 20.1742 7.05991C20.043 6.94507 19.9062 6.83022 19.7695 6.72085C19.6219 6.60054 19.5617 6.39819 19.6328 6.22319L20.1469 4.87241C20.2344 4.67007 20.1578 4.42944 19.9664 4.32007L19.4086 3.99741C19.2172 3.88804 18.9711 3.93725 18.8398 4.11772L17.932 5.25522C17.8227 5.39194 17.6641 5.46304 17.4672 5.39194C17.4672 5.39194 17.1609 5.26616 16.9313 5.1896C16.7508 5.12944 16.625 4.95991 16.6305 4.7685L16.6523 3.32475C16.6633 3.10054 16.5102 2.90366 16.2914 2.86538L15.657 2.756C15.4383 2.71772 15.225 2.84897 15.1594 3.06225L14.6891 4.42944C14.6289 4.60991 14.4539 4.73022 14.2625 4.72475C14.175 4.72475 14.082 4.71929 13.9945 4.71929C13.907 4.71929 13.8141 4.71929 13.7266 4.72475C13.5352 4.73022 13.3656 4.60991 13.3 4.42944L12.8297 3.06225C12.7641 2.84897 12.5508 2.71772 12.332 2.756L11.6977 2.86538C11.4789 2.90366 11.3258 3.10054 11.3367 3.32475L11.3586 4.7685C11.3641 4.95991 11.2437 5.1185 11.0578 5.1896C10.932 5.23882 10.6586 5.34272 10.5273 5.39194C10.3742 5.44663 10.1937 5.40288 10.0461 5.23335L9.14375 4.12319C9.0125 3.94272 8.76641 3.8935 8.575 4.00288L8.01719 4.32554C7.82578 4.43491 7.74375 4.67554 7.83672 4.87788L8.35078 6.22866C8.41641 6.40913 8.36172 6.61147 8.21406 6.72632C8.07734 6.83569 7.94063 6.95054 7.80938 7.06538C7.66719 7.19116 7.45937 7.21304 7.29531 7.1146L6.07031 6.35991C5.88438 6.2396 5.63828 6.27241 5.49609 6.44194L5.08594 6.93413C4.94375 7.10366 4.94922 7.35522 5.10234 7.51382L6.04844 8.6021C6.17422 8.74429 6.19063 8.95757 6.08672 9.12163C5.99375 9.26929 5.90625 9.42241 5.82422 9.581C5.73125 9.75054 5.54531 9.83804 5.35391 9.80522L3.9375 9.53179C3.71875 9.48257 3.5 9.59741 3.42344 9.80522L3.20469 10.4068C3.12812 10.6146 3.22109 10.8498 3.41797 10.9482L4.68125 11.6482C4.85078 11.7412 4.93281 11.9326 4.89453 12.1185C4.86172 12.2935 4.82891 12.463 4.80156 12.638C4.77422 12.8294 4.62656 12.9771 4.44062 13.0099L3.01328 13.2396C2.79453 13.2669 2.625 13.4529 2.625 13.6716V14.3115C2.625 14.5357 2.78906 14.7216 3.01328 14.7435L4.44062 14.9732C4.63203 15.006 4.77422 15.1537 4.80156 15.3451C4.82891 15.5201 4.85625 15.6951 4.89453 15.8646C4.93281 16.0505 4.84531 16.2419 4.68125 16.3349L3.41797 17.0349C3.22109 17.1333 3.12812 17.3685 3.20469 17.5763L3.42344 18.1779C3.5 18.3857 3.71875 18.506 3.9375 18.4513L5.35391 18.1779C5.53984 18.1396 5.73125 18.2326 5.82422 18.4021C5.90625 18.5552 5.99375 18.7083 6.08672 18.8615C6.18516 19.0255 6.17422 19.2333 6.04844 19.381L5.10234 20.4693C4.94922 20.6333 4.94375 20.8794 5.08594 21.049L5.49609 21.5412C5.63828 21.7107 5.88438 21.749 6.07031 21.6232L7.31172 20.8794C7.47578 20.781 7.68359 20.8029 7.82578 20.9287C7.95703 21.0435 8.09375 21.1583 8.23047 21.2677C8.37813 21.388 8.43828 21.5904 8.36719 21.7654L7.85313 23.1162C7.76563 23.3185 7.84219 23.5591 8.03359 23.6685L8.59141 23.9912C8.78281 24.1005 9.02891 24.0513 9.16016 23.8708L10.0789 22.7443C10.1938 22.6021 10.3797 22.5419 10.5273 22.6021C10.7133 22.6787 10.8391 22.7224 11.0687 22.799C11.2492 22.8591 11.375 23.0287 11.3695 23.2201L11.3477 24.6638C11.3367 24.888 11.4898 25.0849 11.7086 25.1232L12.343 25.2326C12.5617 25.2708 12.775 25.1396 12.8406 24.9263L13.3109 23.5591C13.3711 23.3787 13.5461 23.2583 13.7375 23.2638C13.825 23.2638 13.918 23.2693 14.0055 23.2693C14.093 23.2693 14.1859 23.2693 14.2734 23.2638C14.4648 23.2583 14.6344 23.3787 14.7 23.5591L15.1703 24.9263C15.2359 25.1396 15.4492 25.2708 15.668 25.2326L16.3023 25.1232C16.5211 25.0849 16.6742 24.888 16.6633 24.6638L16.6414 23.2201C16.6359 23.0287 16.7617 22.8591 16.9422 22.799C17.1719 22.7224 17.325 22.6623 17.4672 22.6076C17.6094 22.5583 17.7844 22.5529 17.9211 22.7224L18.8508 23.8654C18.982 24.0458 19.2281 24.0951 19.4195 23.9857L19.9773 23.663C20.1687 23.5537 20.2508 23.313 20.1578 23.1107L19.6438 21.7599C19.5781 21.5794 19.6328 21.3771 19.7805 21.2623C19.9172 21.1529 20.0539 21.038 20.1852 20.9232C20.3273 20.7974 20.5352 20.7755 20.6992 20.874L21.9406 21.6177C22.1266 21.738 22.3727 21.7052 22.5148 21.5357L22.925 21.0435C23.0672 20.874 23.0617 20.6224 22.9086 20.4638L21.9625 19.3755C21.8367 19.2333 21.8203 19.0201 21.9242 18.856C22.0172 18.7083 22.1047 18.5552 22.1867 18.3966C22.2797 18.2271 22.4656 18.1396 22.657 18.1724L24.0734 18.4458C24.2922 18.4951 24.5109 18.3802 24.5875 18.1724L24.8062 17.5708C24.8828 17.363 24.7898 17.1279 24.593 17.0294L23.3297 16.3294C23.1602 16.2365 23.0781 16.0451 23.1164 15.8591C23.1492 15.6841 23.182 15.5146 23.2094 15.3396C23.2367 15.1482 23.3844 15.0005 23.5703 14.9677L24.9977 14.738C25.2164 14.7107 25.3859 14.5248 25.3859 14.306V13.6662C25.375 13.4583 25.2109 13.2669 24.9867 13.2451ZM9.94219 19.5177C9.65781 20.0099 8.99063 20.1029 8.575 19.7146C7.06563 18.2763 6.125 16.2474 6.125 13.9998C6.125 11.763 7.06016 9.7396 8.55859 8.30679C8.96875 7.91304 9.64141 8.006 9.92578 8.49819L12.9883 13.781C13.0648 13.9177 13.0648 14.0818 12.9883 14.2185L9.94219 19.5177ZM21.6562 15.8427C20.8305 19.3044 17.7133 21.8748 14 21.8748C13.2289 21.8748 12.4797 21.7654 11.7797 21.5576C11.2383 21.399 10.9867 20.7701 11.2711 20.2833L14.3172 14.9841C14.3937 14.8474 14.5414 14.7654 14.6945 14.7654H20.8031C21.3719 14.7654 21.7875 15.2904 21.6562 15.8427ZM20.8086 13.2341H14.6945C14.5359 13.2341 14.3937 13.1521 14.3172 13.0154L11.2492 7.7271C10.9648 7.24038 11.2109 6.61147 11.7523 6.44741C12.4633 6.23413 13.218 6.12475 14 6.12475C17.7133 6.12475 20.8305 8.69507 21.6562 12.1568C21.7875 12.7091 21.3719 13.2341 20.8086 13.2341Z" fill="#8E8E93"/>
</g>
</svg>
