<svg width="28" height="28" viewBox="0 0 28 28" fill="none" xmlns="http://www.w3.org/2000/svg">
<g id="Share">
<path id="Icon" fill-rule="evenodd" clip-rule="evenodd" d="M14.3434 2.02148L17.8564 5.59126C18.0973 5.83646 18.0973 6.23723 17.8564 6.48328C17.7397 6.6025 17.585 6.6676 17.4211 6.6676C17.2562 6.66676 17.1032 6.6025 16.9866 6.48328L14.6249 4.08454V16.8722C14.6249 17.2205 14.3484 17.5029 14.0086 17.5029C13.6688 17.5029 13.3924 17.2205 13.3924 16.8722V4.11498L11.0595 6.48328C10.8262 6.72171 10.4213 6.72087 10.1897 6.48412C9.9479 6.23723 9.9479 5.83646 10.1897 5.59126L13.7027 2.02148C13.9055 1.81517 14.1422 1.81602 14.3434 2.02148ZM21.4193 10.9501V22.7874C21.4193 23.6041 20.7566 24.267 19.94 24.267H8.10608C7.28869 24.267 6.62683 23.6041 6.62683 22.7874V10.9501C6.62683 10.1325 7.28869 9.47045 8.10608 9.47045H11.2674V10.7387H8.66903C8.24132 10.7387 7.89476 11.0854 7.89476 11.5132V22.2242C7.89476 22.6512 8.24132 22.9987 8.66903 22.9987H19.3771C19.8048 22.9987 20.1514 22.6512 20.1514 22.2242V11.5132C20.1514 11.0854 19.8048 10.7387 19.3771 10.7387H16.7702V9.47045H19.94C20.7566 9.47045 21.4193 10.1325 21.4193 10.9501Z" fill="white"/>
</g>
</svg>
