<svg width="89" height="30" viewBox="0 0 89 30" fill="none" xmlns="http://www.w3.org/2000/svg">
<g id="Stepper" clip-path="url(#clip0_1_3800)">
<path id="Background" fill-rule="evenodd" clip-rule="evenodd" d="M0 6.4C0 4.15979 0 3.03969 0.435974 2.18404C0.819467 1.43139 1.43139 0.819467 2.18404 0.435974C3.03969 0 4.15979 0 6.4 0H44H45H82.6C84.8402 0 85.9603 0 86.816 0.435974C87.5686 0.819467 88.1805 1.43139 88.564 2.18404C89 3.03969 89 4.15979 89 6.4V23.6C89 25.8402 89 26.9603 88.564 27.816C88.1805 28.5686 87.5686 29.1805 86.816 29.564C85.9603 30 84.8402 30 82.6 30H45H44H6.4C4.15979 30 3.03969 30 2.18404 29.564C1.43139 29.1805 0.819467 28.5686 0.435974 27.816C0 26.9603 0 25.8402 0 23.6V6.4ZM45 29H82.56C84.4642 29 85.4163 29 86.1436 28.6294C86.7833 28.3035 87.3035 27.7833 87.6294 27.1436C88 26.4163 88 25.4642 88 23.56V6.44C88 4.53582 88 3.58373 87.6294 2.85643C87.3035 2.21668 86.7833 1.69655 86.1436 1.37058C85.4163 1 84.4642 1 82.56 1H45V29ZM44 1V29H6.44C4.53582 29 3.58373 29 2.85643 28.6294C2.21668 28.3035 1.69655 27.7833 1.37058 27.1436C1 26.4163 1 25.4642 1 23.56V6.44C1 4.53582 1 3.58373 1.37058 2.85643C1.69655 2.21668 2.21668 1.69655 2.85643 1.37058C3.58373 1 4.53582 1 6.44 1H44Z" fill="#5856D6"/>
<path id="Plus" fill-rule="evenodd" clip-rule="evenodd" d="M67 7H65V14H58V16H65V23H67V16H74V14H67V7Z" fill="#5856D6"/>
<rect id="Minus" x="14" y="14" width="16" height="2" fill="#5856D6"/>
</g>
<defs>
<clipPath id="clip0_1_3800">
<rect width="89" height="30" fill="white"/>
</clipPath>
</defs>
</svg>
